<svg height="255" viewBox="0 0 1920 255" width="1920" xmlns="http://www.w3.org/2000/svg"><g fill="#fff" fill-rule="evenodd"><path d="m1 429h1919v-278c-166.16-34.99-239.42-35.807-349-3-97.71 29.252-239.34 60.489-401 30s-322.842-17.51-500 32-352.342 16.487-406 1c-49.294-14.23-176.677-60.133-264.646-43.077z"/><path d="m1921 355h-1971l8-126c68.658-85 154.389-289.648 574-182 410.85 105.4 524.5 72 689 56s641.75-81.972 729 152z" opacity=".1"/><path d="m-82 160c213.265-59.69 427.962-134.624 784-81s464.75 14.146 590-20 347.66-92.088 628-20v342h-1997z" opacity=".1"/></g></svg>