<svg width="48" height="48" viewBox="0 0 48 48" fill="none" xmlns="http://www.w3.org/2000/svg">
<rect width="48" height="48" rx="24" fill="#2775CA"/>
<path d="M29.8469 26.6719C29.8469 23.5948 28.0038 22.5395 24.3178 22.1007C21.6849 21.7486 21.1583 21.0454 21.1583 19.8146C21.1583 18.5838 22.0359 17.7917 23.7912 17.7917C25.3709 17.7917 26.2528 18.3194 26.6874 19.638C26.7324 19.7654 26.8154 19.876 26.9253 19.9547C27.0352 20.0333 27.1666 20.0764 27.3017 20.0779H28.7241C28.8056 20.0799 28.8866 20.0654 28.9622 20.0352C29.0379 20.005 29.1066 19.9598 29.1642 19.9023C29.2219 19.8447 29.2672 19.7761 29.2976 19.7005C29.3279 19.6249 29.3425 19.5439 29.3406 19.4625V19.3747C29.1692 18.422 28.6881 17.5526 27.9721 16.9012C27.2561 16.2498 26.3451 15.853 25.3806 15.7721V13.6733C25.3806 13.3212 25.1173 13.0579 24.6785 12.9701H23.3567C23.0045 12.9701 22.7412 13.2334 22.6535 13.6733V15.6929C20.0206 16.044 18.3531 17.8003 18.3531 19.9955C18.3531 22.8927 20.1083 24.0347 23.7955 24.4735C26.2571 24.9123 27.0427 25.4368 27.0427 26.8442C27.0427 28.2516 25.813 29.216 24.1465 29.216C21.8636 29.216 21.0737 28.2527 20.8105 26.932C20.784 26.7872 20.7087 26.6559 20.5971 26.5601C20.4854 26.4642 20.3443 26.4096 20.1972 26.4054H18.6924C18.611 26.4035 18.5301 26.4181 18.4546 26.4484C18.3791 26.4786 18.3105 26.5239 18.253 26.5814C18.1954 26.6389 18.1502 26.7075 18.1199 26.7831C18.0897 26.8586 18.075 26.9395 18.0769 27.0208V27.1086C18.4291 29.3059 19.8365 30.8877 22.738 31.3266V33.4425C22.738 33.7946 23.0013 34.0579 23.4401 34.1457H24.7566C25.1076 34.1457 25.3709 33.8824 25.4587 33.4425V31.3319C28.0916 30.8931 29.8469 29.0458 29.8469 26.6719Z" fill="white"/>
<path d="M19.5739 35.8951C12.7241 33.4334 9.20395 25.7894 11.7534 19.022C13.0709 15.3306 15.9714 12.519 19.5739 11.2004C19.9261 11.0249 20.1016 10.7616 20.1016 10.3217V9.09195C20.1016 8.73982 19.9261 8.47653 19.5739 8.38876C19.4862 8.38876 19.3106 8.38877 19.2229 8.47653C10.8747 11.1126 6.30455 19.9885 8.94066 28.3378C9.70666 30.7494 11.0403 32.9419 12.8295 34.7312C14.6187 36.5204 16.8113 37.854 19.2229 38.62C19.296 38.6622 19.3781 38.6865 19.4624 38.6909C19.5467 38.6953 19.6309 38.6798 19.708 38.6454C19.7852 38.6111 19.8531 38.559 19.9062 38.4933C19.9594 38.4277 19.9963 38.3505 20.0138 38.2679C20.1016 38.1801 20.1016 38.0924 20.1016 37.9168V36.686C20.1016 36.4227 19.8404 36.0706 19.5739 35.8951ZM28.8854 8.47653C28.8123 8.43432 28.7303 8.40998 28.6461 8.4055C28.5618 8.40102 28.4777 8.41654 28.4006 8.45077C28.3235 8.485 28.2555 8.53697 28.2023 8.60245C28.1491 8.66794 28.1122 8.74508 28.0945 8.82758C28.0067 8.91534 28.0067 9.00311 28.0067 9.1797V10.4095C28.0067 10.7616 28.27 11.1126 28.5344 11.2882C35.3842 13.7498 38.9043 21.3949 36.3549 28.1612C35.7069 29.9599 34.67 31.5935 33.3182 32.9455C31.9664 34.2975 30.333 35.3346 28.5344 35.9828C28.1822 36.1584 28.0067 36.4227 28.0067 36.8615V38.0913C28.0067 38.4423 28.1822 38.7067 28.5344 38.7945C28.6221 38.7945 28.7976 38.7945 28.8854 38.7067C37.2336 36.0695 41.8037 27.1937 39.1676 18.8454C38.4041 16.4227 37.0725 14.2175 35.2839 12.4137C33.4954 10.6098 31.3016 9.2596 28.8854 8.47546V8.47653Z" fill="white"/>
</svg>
