<svg width="48" height="48" viewBox="0 0 48 48" fill="none" xmlns="http://www.w3.org/2000/svg">
<path opacity="0.4" d="M38.5999 15.84V26.14C38.5999 32.3 35.0799 34.9399 29.7999 34.9399H12.2199C11.3199 34.9399 10.4599 34.8601 9.65991 34.6801C9.15991 34.6001 8.67993 34.46 8.23993 34.3C5.23993 33.18 3.41992 30.58 3.41992 26.14V15.84C3.41992 9.67997 6.93991 7.04004 12.2199 7.04004H29.7999C34.2799 7.04004 37.4999 8.94003 38.3599 13.28C38.4999 14.08 38.5999 14.9 38.5999 15.84Z" fill="#FF365A"/>
<path d="M44.5999 21.84V32.14C44.5999 38.3 41.0799 40.9399 35.7999 40.9399H18.2199C16.7399 40.9399 15.3999 40.74 14.2399 40.3C11.8599 39.42 10.2399 37.6001 9.65991 34.6801C10.4599 34.8601 11.3199 34.9399 12.2199 34.9399H29.7999C35.0799 34.9399 38.5999 32.3 38.5999 26.14V15.84C38.5999 14.9 38.5199 14.06 38.3599 13.28C42.1599 14.08 44.5999 16.76 44.5999 21.84Z" fill="#FF365A"/>
<path d="M21 26.28C23.9161 26.28 26.28 23.9161 26.28 21C26.28 18.0839 23.9161 15.72 21 15.72C18.0839 15.72 15.72 18.0839 15.72 21C15.72 23.9161 18.0839 26.28 21 26.28Z" fill="#FF365A"/>
<path d="M9.56006 16.5C8.74006 16.5 8.06006 17.18 8.06006 18V24C8.06006 24.82 8.74006 25.5 9.56006 25.5C10.3801 25.5 11.0601 24.82 11.0601 24V18C11.0601 17.18 10.4001 16.5 9.56006 16.5Z" fill="#FF365A"/>
<path d="M32.4199 16.5C31.5999 16.5 30.9199 17.18 30.9199 18V24C30.9199 24.82 31.5999 25.5 32.4199 25.5C33.2399 25.5 33.9199 24.82 33.9199 24V18C33.9199 17.18 33.2599 16.5 32.4199 16.5Z" fill="#FF365A"/>
</svg>
