<svg width="48" height="48" viewBox="0 0 48 48" fill="none" xmlns="http://www.w3.org/2000/svg">
<path opacity="0.4" d="M41 20.38H35.22C30.48 20.38 26.62 16.52 26.62 11.78V6C26.62 4.9 25.72 4 24.62 4H16.14C9.98 4 5 8 5 15.14V32.86C5 40 9.98 44 16.14 44H31.86C38.02 44 43 40 43 32.86V22.38C43 21.28 42.1 20.38 41 20.38Z" fill="#026BFB"/>
<path d="M31.6 4.41999C30.78 3.59999 29.36 4.15999 29.36 5.29999V12.28C29.36 15.2 31.84 17.62 34.86 17.62C36.76 17.64 39.4 17.64 41.66 17.64C42.8 17.64 43.4 16.3 42.6 15.5C39.72 12.6 34.56 7.37999 31.6 4.41999Z" fill="#026BFB"/>
<path d="M24.56 29.44C23.98 28.86 23.02 28.86 22.44 29.44L21 30.88V22.5C21 21.68 20.32 21 19.5 21C18.68 21 18 21.68 18 22.5V30.88L16.56 29.44C15.98 28.86 15.02 28.86 14.44 29.44C13.86 30.02 13.86 30.98 14.44 31.56L18.44 35.56C18.46 35.58 18.48 35.58 18.48 35.6C18.6 35.72 18.76 35.82 18.92 35.9C19.12 35.96 19.3 36 19.5 36C19.7 36 19.88 35.96 20.06 35.88C20.24 35.8 20.4 35.7 20.56 35.56L24.56 31.56C25.14 30.98 25.14 30.02 24.56 29.44Z" fill="#026BFB"/>
</svg>
