<svg width="48" height="48" viewBox="0 0 48 48" fill="none" xmlns="http://www.w3.org/2000/svg">
<path opacity="0.4" d="M39.2007 25.2098H43.133V22.4066C43.133 18.3769 39.8431 15.0869 35.8134 15.0869H13.4651C9.43545 15.0869 6.14551 18.3769 6.14551 22.4066V30.9137C7.48874 29.843 9.18238 29.2006 11.0123 29.2006C15.3145 29.2006 18.7991 32.6852 18.7991 36.9874C18.7991 38.4474 18.3903 39.8296 17.67 40.9976C17.2612 41.6985 16.7356 42.3214 16.1321 42.8275H35.8134C39.8431 42.8275 43.133 39.5376 43.133 35.5079V33.1913H39.4343C37.3318 33.1913 35.4046 31.6534 35.2294 29.551C35.1126 28.3245 35.5798 27.176 36.3974 26.3778C37.1177 25.6381 38.1105 25.2098 39.2007 25.2098Z" fill="#E8AA00"/>
<path d="M30.1874 7.68982V15.0873H13.4651C9.43545 15.0873 6.14551 18.3773 6.14551 22.407V15.2626C6.14551 12.946 7.5666 10.8824 9.72745 10.0648L25.1843 4.22462C27.5983 3.32913 30.1874 5.1007 30.1874 7.68982Z" fill="#E8AA00"/>
<path d="M45.198 27.1958V31.2061C45.198 32.2768 44.3415 33.1527 43.2513 33.1917H39.4358C37.3333 33.1917 35.4061 31.6538 35.2309 29.5513C35.1141 28.3249 35.5813 27.1763 36.3989 26.3782C37.1192 25.6384 38.112 25.2102 39.2022 25.2102H43.2513C44.3415 25.2491 45.198 26.1251 45.198 27.1958Z" fill="#E8AA00"/>
<path d="M28.5327 24.8205H14.9057C14.1076 24.8205 13.4457 24.1586 13.4457 23.3604C13.4457 22.5623 14.1076 21.9004 14.9057 21.9004H28.5327C29.3308 21.9004 29.9927 22.5623 29.9927 23.3604C29.9927 24.1586 29.3308 24.8205 28.5327 24.8205Z" fill="#E8AA00"/>
<path d="M16.5184 31.4817C15.2245 30.1878 13.5726 29.4445 11.8657 29.2517C9.59443 28.9902 7.24057 29.7473 5.50614 31.4817C4.47374 32.5141 3.78548 33.7805 3.46888 35.1158C2.8219 37.6623 3.4964 40.4842 5.50614 42.494C6.89644 43.8843 8.67216 44.6414 10.5029 44.7377C11.2876 44.8065 12.0997 44.7377 12.8844 44.5312C14.2196 44.2146 15.486 43.5264 16.5184 42.494C19.5605 39.4518 19.5605 34.5239 16.5184 31.4817ZM9.58064 34.0696C9.58064 33.2712 10.2414 32.6105 11.0398 32.6105C11.8519 32.6243 12.4989 33.2712 12.5127 34.0834L12.4989 35.5287L13.8892 35.5149C14.7014 35.5287 15.3484 36.1757 15.3621 36.9878C15.3484 37.8 14.7014 38.447 13.8892 38.4607L12.4989 38.447L12.5127 39.8923C12.4989 40.7045 11.8519 41.3515 11.0398 41.3652C10.6406 41.3515 10.2827 41.1862 10.0212 40.9247C9.75965 40.6632 9.59442 40.3053 9.58065 39.9061L9.58069 38.447L8.06652 38.4469C7.65356 38.4469 7.29562 38.2818 7.03408 38.0203C6.77254 37.7587 6.6074 37.4008 6.6074 36.9878C6.6074 36.1894 7.26813 35.5287 8.06652 35.5287L9.58068 35.5287L9.58064 34.0696Z" fill="#E8AA00"/>
</svg>
