<svg width="48" height="48" viewBox="0 0 48 48" fill="none" xmlns="http://www.w3.org/2000/svg">
<path d="M36 26C34.12 26 32.38 26.66 31 27.76C29.16 29.22 28 31.48 28 34C28 35.5 28.42 36.92 29.16 38.12C30.54 40.44 33.08 42 36 42C38.02 42 39.86 41.26 41.26 40C41.88 39.48 42.42 38.84 42.84 38.12C43.58 36.92 44 35.5 44 34C44 29.58 40.42 26 36 26ZM40.14 33.14L35.88 37.08C35.6 37.34 35.22 37.48 34.86 37.48C34.48 37.48 34.1 37.34 33.8 37.04L31.82 35.0601C31.24 34.4801 31.24 33.5199 31.82 32.9399C32.4 32.3599 33.36 32.3599 33.94 32.9399L34.9 33.9L38.1 30.9399C38.7 30.3799 39.66 30.42 40.22 31.02C40.78 31.62 40.74 32.56 40.14 33.14Z" fill="#02C076"/>
<path opacity="0.4" d="M42.1801 43C42.1801 43.56 41.7401 44 41.1801 44H6.82007C6.26007 44 5.82007 43.56 5.82007 43C5.82007 34.72 13.9801 28 24.0001 28C26.0601 28 28.0601 28.2799 29.9001 28.8199C28.7201 30.2199 28.0001 32.04 28.0001 34C28.0001 35.5 28.42 36.92 29.16 38.12C29.56 38.8 30.0801 39.4199 30.6801 39.9399C32.0801 41.2199 33.9401 42 36.0001 42C38.2401 42 40.2601 41.08 41.7001 39.6C42.0201 40.68 42.1801 41.82 42.1801 43Z" fill="#02C076"/>
<path d="M24 24C29.5228 24 34 19.5228 34 14C34 8.47715 29.5228 4 24 4C18.4772 4 14 8.47715 14 14C14 19.5228 18.4772 24 24 24Z" fill="#02C076"/>
</svg>
