<svg width="48" height="48" viewBox="0 0 48 48" fill="none" xmlns="http://www.w3.org/2000/svg">
<path d="M32 14L32 8C32 5.8 33.8 4 36 4L40 4C42.2 4 44 5.8 44 8L44 14C44 16.2 42.2 18 40 18L36 18C33.8 18 32 16.2 32 14Z" fill="#FF365A"/>
<path d="M34 41.6L34 34.4C34 33.08 35.08 32 36.4 32L39.6 32C40.92 32 42 33.08 42 34.4L42 41.6C42 42.92 40.92 44 39.6 44L36.4 44C35.08 44 34 42.92 34 41.6Z" fill="#FF365A"/>
<path d="M19 41.6L19 34.4C19 33.08 20.08 32 21.4 32L24.6 32C25.92 32 27 33.08 27 34.4L27 41.6C27 42.92 25.92 44 24.6 44L21.4 44C20.08 44 19 42.92 19 41.6Z" fill="#FF365A"/>
<path opacity="0.37" d="M21.5 32C21.5 32.82 22.18 33.5 23 33.5C23.82 33.5 24.5 32.82 24.5 32L24.5 26.5L36.5 26.5L36.5 32C36.5 32.82 37.18 33.5 38 33.5C38.82 33.5 39.5 32.82 39.5 32L39.5 18C39.5 17.18 38.82 16.5 38 16.5C37.18 16.5 36.5 17.18 36.5 18L36.5 23.5L12 23.5C8.96 23.5 6.5 25.96 6.5 29L6.5 32C6.5 32.82 7.18 33.5 8 33.5C8.82 33.5 9.5 32.82 9.5 32L9.5 29C9.5 27.62 10.62 26.5 12 26.5L21.5 26.5L21.5 32Z" fill="#FF365A"/>
<path d="M4 41.6L4 34.4C4 33.08 5.08002 32 6.40002 32L9.59998 32C10.92 32 12 33.08 12 34.4L12 41.6C12 42.92 10.92 44 9.59998 44L6.40002 44C5.08002 44 4 42.92 4 41.6Z" fill="#FF365A"/>
</svg>
