<svg width="48" height="48" viewBox="0 0 48 48" fill="none" xmlns="http://www.w3.org/2000/svg">
<path opacity="0.4" d="M38.96 25.9H43V23.02C43 18.88 39.62 15.5 35.48 15.5H12.52C8.37999 15.5 5 18.88 5 23.02V30.3199C6.58 28.8799 8.7 28 11 28C15.98 28 20 32.04 20 37C20 38.06 19.82 39.06 19.48 40C18.94 41.58 17.94 42.94 16.68 44H35.48C39.62 44 43 40.62 43 36.48V34.1H39.2C37.04 34.1 35.06 32.52 34.88 30.36C34.76 29.1 35.24 27.92 36.08 27.1C36.82 26.34 37.84 25.9 38.96 25.9Z" fill="#026BFB"/>
<path d="M11 28C8.7 28 6.58 28.8799 5 30.3199C4.64 30.6399 4.3 30.98 4 31.36C2.74 32.9 2 34.86 2 37C2 41.98 6.04 46 11 46C13.16 46 15.12 45.24 16.68 44C17.94 42.94 18.94 41.58 19.48 40C19.82 39.06 20 38.06 20 37C20 32.04 15.98 28 11 28ZM16.4 35.26C16.4 35.88 15.9 36.36 15.3 36.36C14.7 36.36 14.2 35.88 14.2 35.26V35.04C14.2 34.8 14.02 34.6 13.78 34.6H9.26001C9.48001 35.02 9.43999 35.54 9.07999 35.9C8.87999 36.1 8.59999 36.22 8.29999 36.22C8.01999 36.22 7.74001 36.1 7.54001 35.9L5.92001 34.28C5.82001 34.18 5.73999 34.06 5.67999 33.92C5.57999 33.66 5.57999 33.36 5.67999 33.08C5.73999 32.96 5.82001 32.82 5.92001 32.72L7.54001 31.12C7.96001 30.68 8.65999 30.68 9.07999 31.12C9.43999 31.46 9.48001 32 9.26001 32.4H13.78C15.22 32.4 16.4 33.58 16.4 35.04V35.26ZM13.7 43.2C13.4 43.2 13.12 43.1 12.92 42.88C12.56 42.54 12.52 42 12.74 41.6H8.22C6.78 41.6 5.60001 40.42 5.60001 38.96V38.74C5.60001 38.12 6.10001 37.64 6.70001 37.64C7.30001 37.64 7.79999 38.12 7.79999 38.74V38.96C7.79999 39.2 7.98 39.4 8.22 39.4H12.74C12.52 38.98 12.56 38.46 12.92 38.1C13.34 37.68 14.04 37.68 14.46 38.1L16.08 39.72C16.18 39.82 16.26 39.94 16.32 40.08C16.42 40.34 16.42 40.64 16.32 40.92C16.26 41.04 16.18 41.18 16.08 41.28L14.46 42.88C14.26 43.1 13.98 43.2 13.7 43.2Z" fill="#026BFB"/>
<path d="M29.7 7.9V15.5H12.52C8.37999 15.5 5 18.88 5 23.02V15.68C5 13.3 6.45999 11.1799 8.67999 10.3399L24.56 4.33994C27.04 3.41994 29.7 5.24 29.7 7.9Z" fill="#026BFB"/>
<path d="M45.12 27.9399V32.0601C45.12 33.1601 44.24 34.06 43.12 34.1H39.2C37.04 34.1 35.06 32.52 34.88 30.36C34.76 29.1 35.24 27.92 36.08 27.1C36.82 26.34 37.84 25.9 38.96 25.9H43.12C44.24 25.94 45.12 26.8399 45.12 27.9399Z" fill="#026BFB"/>
<path d="M28 25.5H14C13.18 25.5 12.5 24.82 12.5 24C12.5 23.18 13.18 22.5 14 22.5H28C28.82 22.5 29.5 23.18 29.5 24C29.5 24.82 28.82 25.5 28 25.5Z" fill="#026BFB"/>
</svg>
