<svg width="48" height="48" viewBox="0 0 48 48" fill="none" xmlns="http://www.w3.org/2000/svg">
<path opacity="0.4" fill-rule="evenodd" clip-rule="evenodd" d="M46 30.4399C46.8284 30.4399 47.5 31.1115 47.5 31.9399C47.5 40.5084 40.5684 47.4399 32 47.4399C31.4596 47.4399 30.961 47.1493 30.6947 46.679C30.4284 46.2087 30.4357 45.6316 30.7138 45.1682L32.8138 41.6682C33.24 40.9578 34.1614 40.7275 34.8717 41.1537C35.5821 41.5799 35.8125 42.5013 35.3862 43.2117L34.8436 44.1161C40.3818 42.8312 44.5 37.8731 44.5 31.9399C44.5 31.1115 45.1716 30.4399 46 30.4399Z" fill="#02C076"/>
<path opacity="0.4" fill-rule="evenodd" clip-rule="evenodd" d="M13.1564 3.76382C7.6182 5.04868 3.5 10.0068 3.5 15.9399C3.5 16.7684 2.82843 17.4399 2 17.4399C1.17157 17.4399 0.5 16.7684 0.5 15.9399C0.5 7.37151 7.43157 0.439941 16 0.439941C16.5404 0.439941 17.039 0.73063 17.3053 1.20089C17.5716 1.67116 17.5643 2.24829 17.2862 2.71168L15.1862 6.21168C14.76 6.92206 13.8386 7.1524 13.1283 6.72618C12.4179 6.29996 12.1875 5.37857 12.6138 4.6682L13.1564 3.76382Z" fill="#02C076"/>
<path opacity="0.4" d="M29.7 30.66C29.7 37.48 24.18 43 17.36 43C10.54 43 5.02002 37.48 5.02002 30.66C5.02002 23.84 10.54 18.3199 17.36 18.3199C17.68 18.3199 17.98 18.34 18.32 18.36C24.38 18.82 29.22 23.66 29.68 29.72C29.68 30.02 29.7 30.32 29.7 30.66Z" fill="#02C076"/>
<path d="M43 17.34C43 24.16 37.48 29.6801 30.66 29.6801H29.68C29.22 23.6201 24.38 18.7799 18.32 18.3199V17.34C18.32 10.52 23.84 5 30.66 5C37.48 5 43 10.52 43 17.34Z" fill="#02C076"/>
<path d="M22.24 30.02C22.48 29.52 22.62 28.98 22.62 28.4C22.62 26.4 20.86 24.64 18.86 24.64H18.34V23.88C18.34 23.06 17.66 22.38 16.84 22.38C16.02 22.38 15.34 23.06 15.34 23.88V24.64H13.24C12.42 24.64 11.74 25.32 11.74 26.14L11.74 30.64V35.14C11.74 35.96 12.42 36.64 13.24 36.64H15.34V37.4C15.34 38.22 16.02 38.9 16.84 38.9C17.66 38.9 18.34 38.22 18.34 37.4V36.64H19.66C21.9 36.64 23.74 34.96 23.74 32.88C23.74 31.74 23.14 30.7 22.24 30.02ZM14.74 27.64H18.86C19.28 27.64 19.62 28.1 19.62 28.4C19.62 28.82 19.28 29.16 18.86 29.16H14.74V27.64ZM19.66 33.66H14.72V32.16H18.84H19.64C20.28 32.16 20.72 32.56 20.72 32.92C20.72 33.28 20.3 33.66 19.66 33.66Z" fill="#02C076"/>
</svg>
