<svg width="48" height="48" viewBox="0 0 48 48" fill="none" xmlns="http://www.w3.org/2000/svg">
<rect width="48" height="48" rx="24" fill="#F6931A"/>
<path d="M32.796 24.8627C33.245 25.1005 33.6725 25.3766 34.0739 25.6881C35.475 26.799 36.0673 28.2438 35.8418 30.0147C35.6926 31.328 35.2285 32.5859 34.4888 33.6814C33.5793 35.0028 32.2879 35.7169 30.7304 35.9845C29.4391 36.207 28.1492 36.1348 26.8608 35.9619C26.3918 35.9003 25.9258 35.8206 25.4612 35.7349C25.3109 35.7064 25.2643 35.7545 25.2297 35.8973C24.8749 37.3435 24.5066 38.7867 24.1548 40.2344C24.1052 40.4389 24.0451 40.475 23.8391 40.4193C23.0258 40.1999 22.205 39.9999 21.3856 39.803C21.2353 39.7699 21.2188 39.7278 21.2534 39.5865C21.6172 38.1493 21.9704 36.7091 22.3358 35.2719C22.3764 35.1095 22.3613 35.0419 22.1854 34.9998C21.551 34.8434 20.9186 34.6781 20.2882 34.5037C20.1273 34.4586 20.0807 34.5037 20.0432 34.654C19.6884 36.1002 19.3216 37.5449 18.9683 38.9912C18.9277 39.1535 18.8811 39.1806 18.7202 39.1415C17.8924 38.927 17.061 38.7201 16.2262 38.5206C16.0758 38.4845 16.0548 38.4214 16.0894 38.2786C16.4562 36.8279 16.811 35.3741 17.1808 33.9189C17.2289 33.731 17.1898 33.6693 17.0064 33.6182C15.2024 33.1672 13.4119 32.7162 11.6139 32.2652C11.4861 32.2336 11.447 32.2021 11.5072 32.0668C11.9461 31.0645 12.3796 30.0623 12.8076 29.0601C12.8617 28.9323 12.9293 28.9353 13.0436 28.9669C13.663 29.1292 14.2808 29.2976 14.9047 29.4359C15.6835 29.6088 16.1435 29.3036 16.3359 28.5339C16.9282 26.1576 17.5215 23.7818 18.1159 21.4065C18.5669 19.6025 19.0179 17.7985 19.4689 15.9945C19.6508 15.2639 19.2674 14.5603 18.5173 14.2717C17.9329 14.0726 17.3364 13.9114 16.7313 13.7891C16.5539 13.7455 16.378 13.6989 16.1991 13.6658C16.1014 13.6478 16.0879 13.6102 16.1104 13.5155C16.3464 12.5789 16.5825 11.6423 16.8095 10.7027C16.8486 10.5343 16.9493 10.5885 17.041 10.611C17.7536 10.7869 18.4631 10.9703 19.1772 11.1447C20.2566 11.4063 21.327 11.7085 22.4124 11.9505C22.5913 11.9911 22.659 11.9685 22.7056 11.7791C23.0514 10.3524 23.4122 8.92277 23.7579 7.50361C23.8015 7.32471 23.8557 7.2736 24.0436 7.32321C24.8584 7.53969 25.6777 7.74264 26.497 7.93807C26.6699 7.98016 26.6864 8.04632 26.6474 8.20718C26.2896 9.61581 25.9423 11.0275 25.586 12.4361C25.5484 12.5864 25.5634 12.63 25.7228 12.6661C26.3602 12.8059 26.9976 12.9562 27.6305 13.1171C27.8125 13.1652 27.8636 13.1066 27.9042 12.9442C28.2409 11.5671 28.5867 10.1931 28.9219 8.81603C28.9685 8.62661 29.0211 8.55896 29.2376 8.61759C30.0434 8.83557 30.8567 9.03401 31.6685 9.22794C31.8279 9.26553 31.8595 9.31814 31.8189 9.479C31.4551 10.9162 31.1048 12.3564 30.7365 13.7921C30.6899 13.9755 30.7365 14.0296 30.8988 14.0928C32.0269 14.4602 33.1008 14.977 34.0919 15.6292C35.0225 16.2651 35.7937 17.0408 36.2116 18.1127C36.6626 19.2868 36.5739 20.4684 36.2222 21.6441C35.7261 23.3088 34.6351 24.3611 32.9494 24.8011C32.8923 24.8101 32.8547 24.8312 32.796 24.8627ZM26.2625 31.9585H26.4579C27.1615 31.936 27.853 31.8593 28.495 31.5481C30.1171 30.7604 30.4643 28.6016 29.1835 27.2876C28.4318 26.5209 27.4967 26.0849 26.5181 25.7211C25.3154 25.2701 24.0481 25.0116 22.7973 24.7094C22.6154 24.6658 22.5808 24.7229 22.5432 24.8763C22.0551 26.8597 21.561 28.8411 21.0609 30.8205C21.0203 30.9798 21.0699 31.0189 21.2113 31.052C21.748 31.1813 22.2801 31.3271 22.8168 31.4579C23.9427 31.7485 25.0973 31.9139 26.2595 31.951L26.2625 31.9585ZM27.5584 22.5476C27.9446 22.5544 28.3306 22.5211 28.7099 22.4484C29.7127 22.2379 30.4373 21.6967 30.7289 20.6849C31.0206 19.6732 30.7816 18.7607 29.9773 18.03C29.5508 17.6542 29.0665 17.3496 28.5431 17.128C27.375 16.6064 26.1287 16.3448 24.8869 16.0652C24.7366 16.0306 24.7246 16.1238 24.699 16.2275C24.5186 16.9531 24.3367 17.6793 24.1533 18.4059C23.8902 19.4582 23.6286 20.5211 23.358 21.5764C23.3189 21.7268 23.3445 21.7929 23.5084 21.829C23.8211 21.8951 24.1263 21.9898 24.4374 22.0665C25.4627 22.307 26.4925 22.5356 27.5554 22.5401L27.5584 22.5476Z" fill="white"/>
</svg>
