<svg width="48" height="48" viewBox="0 0 48 48" fill="none" xmlns="http://www.w3.org/2000/svg">
<rect width="48" height="48" rx="24" fill="#26A07B"/>
<path d="M23.981 11.0307C27.5277 11.0307 31.0744 11.0307 34.632 11.0307C34.9484 11.0307 35.0357 11.1071 35.0357 11.429C35.0357 12.9841 35.0357 14.5337 35.0357 16.0833C35.0357 16.3834 34.9484 16.4489 34.6647 16.4435C32.2039 16.4435 29.7539 16.4435 27.2767 16.4435C26.9548 16.4435 26.8893 16.5308 26.8948 16.8309C26.9166 17.7657 26.9166 18.6988 26.8948 19.63C26.8948 19.9247 26.9548 20.0174 27.2713 20.0338C29.8624 20.1192 32.4382 20.4666 34.9594 21.0705C35.7879 21.2629 36.5903 21.5542 37.3493 21.9381C37.6549 22.0891 37.9318 22.2922 38.1677 22.5383C38.2575 22.6187 38.3294 22.717 38.3785 22.827C38.4277 22.937 38.4532 23.0562 38.4532 23.1767C38.4532 23.2972 38.4277 23.4163 38.3785 23.5263C38.3294 23.6364 38.2575 23.7347 38.1677 23.8151C37.7061 24.2643 37.1454 24.5989 36.5308 24.7918C35.0347 25.3232 33.485 25.6891 31.9092 25.8831C30.3514 26.1214 28.7808 26.2672 27.2058 26.3196C26.9111 26.3196 26.9111 26.4724 26.9111 26.6906C26.9111 30.2264 26.9111 33.784 26.9111 37.2979C26.9111 37.658 26.8184 37.7344 26.4692 37.7344C24.7668 37.7344 23.0589 37.7344 21.3565 37.7344C21.0673 37.7344 21.0127 37.6526 21.0127 37.3852C21.0127 33.8822 21.0127 30.3846 21.0127 26.8816C21.0127 26.336 21.0127 26.336 20.4671 26.336C17.9188 26.2235 15.3877 25.8616 12.9099 25.2556C11.974 25.0529 11.0768 24.701 10.2527 24.2134C9.16138 23.5313 9.16138 22.7729 10.2527 22.1018C11.3527 21.4809 12.5531 21.058 13.7993 20.8523C16.0723 20.377 18.3813 20.0941 20.7017 20.0065C20.9691 20.0065 21.0291 19.9192 21.0236 19.6682C21.0236 18.7188 21.0236 17.7748 21.0236 16.8309C21.0236 16.5253 20.9636 16.4216 20.6308 16.4271C18.1754 16.4271 15.72 16.4271 13.2701 16.4271C12.9372 16.4271 12.8772 16.3234 12.8772 16.0179C12.8772 14.4792 12.8772 12.9404 12.8772 11.3963C12.8772 11.058 12.9863 11.0089 13.2864 11.0089C16.8549 11.0362 20.418 11.0307 23.981 11.0307ZM24.172 25.4138C26.0338 25.4335 27.8953 25.3534 29.7485 25.1737C31.4061 25.0385 33.0491 24.7611 34.6592 24.3444C35.3077 24.1963 35.9285 23.9458 36.4981 23.6023C37.2238 23.1276 37.2129 22.6256 36.4981 22.1509C36.1442 21.9151 35.7583 21.7313 35.3522 21.6052C32.661 20.8642 29.8876 20.4628 27.0966 20.4103C26.8402 20.4103 26.8838 20.5522 26.8838 20.6995C26.8838 21.7908 26.8838 22.9148 26.8838 24.0224C26.8838 24.2734 26.8238 24.3771 26.5619 24.388C24.7995 24.4535 23.0371 24.4644 21.2746 24.388C21.0455 24.388 20.9909 24.2952 20.9909 24.077C20.9909 22.953 20.9909 21.8344 20.9909 20.7158C20.9909 20.4648 20.92 20.4103 20.6744 20.4157C19.4631 20.4703 18.2518 20.574 17.0459 20.7158C15.5134 20.8688 14 21.1741 12.528 21.6271C12.0928 21.7485 11.6774 21.9323 11.2948 22.1727C10.6346 22.6256 10.6401 23.1167 11.2948 23.5695C11.5501 23.7367 11.8227 23.8757 12.1079 23.9842C13.0711 24.3387 14.0673 24.5965 15.0816 24.7536C18.0863 25.2418 21.1283 25.4627 24.172 25.4138Z" fill="white"/>
</svg>
